<svg width="18" height="36" viewBox="0 0 18 36" xmlns="http://www.w3.org/2000/svg"><path fill="context-fill" d="M 18 0 A 9 9 0 0 0 16.71875 0.091796875 A 9 9 0 0 0 15.464844 0.36523438 A 9 9 0 0 0 14.261719 0.8125 A 9 9 0 0 0 13.134766 1.4296875 A 9 9 0 0 0 12.105469 2.1992188 A 9 9 0 0 0 11.199219 3.1054688 A 9 9 0 0 0 10.429688 4.1347656 A 9 9 0 0 0 9.8125 5.2617188 A 9 9 0 0 0 9.3652344 6.4648438 A 9 9 0 0 0 9.0917969 7.71875 A 9 9 0 0 0 9 9 L 9 36 L 18 36 L 18 9 L 18 0 z"/><path fill="none" stroke="context-stroke" stroke-width="2" d="m 18.000093,1 c -0.428726,4.05e-5 -0.856898,0.029013 -1.281252,0.086696 -0.423943,0.057792 -0.842978,0.1440931 -1.253907,0.2582462 C 15.053757,1.458525 14.651694,1.5996895 14.261808,1.7673594 13.871931,1.9360531 13.495322,2.130849 13.134854,2.3502578 12.773856,2.5690428 12.429879,2.8119215 12.105556,3.0770364 11.78232,3.3416345 11.479468,3.62766 11.199305,3.9329378 10.918595,4.2392424 10.661428,4.5641075 10.429773,4.9050497 10.197457,5.2454902 9.9912022,5.6011774 9.8125842,5.9693926 9.6350512,6.3376173 9.4855833,6.7173437 9.3653193,7.1056755 9.2444513,7.4937747 9.1530724,7.8895281 9.0918804,8.2899185 c -0.06108,0.4007759 -0.09176,0.8051614 -0.0918,1.2100673 V 26.499958 c -4.4e-5,0.404905 0.42879487,34.999921 6.9974943e-5,34.999951"/></svg>
